PathFileType	4	(X/Y/Z)	C:/Users/beibeiliu/ov580/test_trc\sequence.35_training_dense_left.trc
DataRate	CameraRate	NumFrames	NumMarkers	Units	OrigDataRate	OrigDataStartFrame	OrigNumFrames
120	120	13	19	mm	120	248	283
Frame#	Time	ThumbCMC			ThumbMCP			ThumbIP			ThumbTip			IndexMCP			IndexPIP			IndexTip			MiddleMCP			MiddlePIP			MiddleTip			RingMCP			RingPIP			RingTip			PinkyMCP			PinkyPIP			PinkyTip			BackHand1			BackHand2			BackHand3	
		X0	Y0	Z0	X1	Y1	Z1	X2	Y2	Z2	X3	Y3	Z3	X4	Y4	Z4	X5	Y5	Z5	X6	Y6	Z6	X7	Y7	Z7	X8	Y8	Z8	X9	Y9	Z9	X10	Y10	Z10	X11	Y11	Z11	X12	Y12	Z12	X13	Y13	Z13	X14	Y14	Z14	X15	Y15	Z15	X16	Y16	Z16	X17	Y17	Z17	X18	Y18	Z18	
247	2.05833	-103.013	11.3381	40.6833	-88.3841	4.35352	20.9808	-77.6331	5.45882	-1.85178	-70.4026	1.95421	-16.7261	-97.5679	19.9874	-26.8859	-94.297	13.0745	-48.8903	-88.7692	1.96699	-69.1095	-121.565	20.6437	-34.7962	-118.64	15.6555	-58.0786	-117.481	5.22725	-85.3904	-144.288	17.8794	-28.0835	-143.786	13.6813	-54.1127	-140.868	6.47151	-76.1662	-163.56	11.6517	-17.1604	-163.5	10.6196	-38.0391	-164.524	9.4757	-56.8988	-148.023	26.1223	12.7756	-148.585	29.1233	39.2524	-123.982	31.6136	30.7508	
248	2.06667	-102.345	6.44361	44.7578	-88.2925	-0.0958899	25.6047	-78.5646	-2.00312	5.85123	-69.8321	-4.33153	-13.8889	-102.63	11.1762	-22.2336	-95.126	4.35707	-45.1604	-92.8063	-5.47744	-66.6782	-125.819	12.935	-31.3395	-118.055	8.28467	-56.9154	-117.589	1.64931	-78.8843	-143.773	10.3925	-25.151	-140.689	7.05452	-49.4448	-139.554	2.67315	-68.9168	-164.478	4.96315	-13.2771	-166.869	3.23794	-33.7146	-171.632	2.98786	-55.1097	-146.062	19.9372	15.2703	-148.533	26.1533	42.0255	-124.498	24.0405	32.51	
249	2.075	-105.631	2.8534	46.7598	-90.4139	-4.26881	28.6594	-79.6828	-6.13624	6.03036	-69.805	-10.5927	-6.99079	-104.087	4.77476	-22.5484	-98.8382	-2.07246	-39.8091	-92.5042	-11.5167	-60.7737	-126.921	5.82611	-26.8638	-124.442	1.23031	-51.0733	-123.597	-5.1236	-77.2839	-147.684	3.8982	-22.6372	-145.551	0.489693	-48.0949	-143.956	-4.60748	-70.2617	-167.079	0.45238	-11.7418	-172.312	-1.97898	-28.2526	-176.601	-1.26077	-47.9355	-153.282	16.8833	18.4463	-151.683	19.6989	44.9039	-124.89	21.6059	36.3163	
250	2.08333	-114.39	-1.29648	49.0819	-93.6489	-8.95941	31.6894	-84.2419	-10.8766	10.4354	-75.0604	-14.5131	-1.22508	-105.084	-0.502351	-16.59	-104.947	-7.20015	-37.3403	-97.0244	-17.1794	-62.6574	-130.945	-0.294424	-28.8413	-125.054	-5.81938	-48.9039	-126.057	-9.96836	-71.944	-149.639	-2.33489	-19.4742	-153.089	-6.56507	-43.3045	-149.177	-10.1919	-62.9456	-170.493	-5.60168	-6.98042	-176.67	-8.63842	-25.6489	-180.876	-7.29091	-42.5999	-152.812	12.5463	22.2684	-155.695	16.4232	47.46	-131.522	15.9272	37.7001	
251	2.09167	-115.637	-3.66663	55.2232	-99.1183	-12.125	37.7812	-88.6431	-14.6993	15.6315	-78.8963	-16.5721	-0.808342	-111.581	-6.47336	-16.1028	-106.684	-13.7662	-35.7259	-100.032	-21.1427	-54.8006	-133.083	-6.51982	-24.3013	-131.919	-11.6663	-44.8204	-129.093	-15.7812	-69.1046	-155.749	-7.84234	-20.1604	-154.249	-12.3238	-39.9137	-155.225	-17.754	-61.588	-174.808	-12.7853	-3.50064	-181.174	-14.9103	-22.0295	-186.015	-14.4761	-43.1788	-156.818	7.98322	22.0478	-161.358	14.7504	49.2017	-138.321	14.3412	37.1012	
252	2.1	-123.139	-6.10404	56.6551	-101.034	-12.1393	36.452	-90.8642	-16.1827	20.4581	-78.8826	-20.1158	5.65505	-115.273	-10.4856	-10.1541	-111.339	-19.5023	-34.9518	-103.756	-25.3902	-55.0307	-139.427	-11.6161	-23.5736	-134.363	-16.8699	-42.2317	-131.46	-21.9101	-70.5516	-160.144	-14.5755	-16.3465	-159.525	-19.988	-34.7973	-162.186	-25.377	-56.0369	-184.679	-19.1423	-3.26672	-185.116	-23.7236	-23.0649	-190.303	-24.0727	-39.9809	-162.279	2.18257	26.1685	-165.81	11.5914	49.896	-140.707	11.161	38.904	
253	2.10833	-122.677	-7.74631	60.307	-107.456	-15.679	40.3959	-92.0535	-18.013	22.551	-78.6682	-21.3124	10.4728	-121.525	-15.5713	-12.4601	-112.376	-22.2395	-28.1637	-103.372	-27.9532	-48.7285	-142.107	-17.0701	-21.8404	-137.966	-21.1607	-39.3286	-136.975	-28.0657	-65.3341	-165.816	-21.252	-16.98	-166.636	-27.2158	-34.8762	-165.413	-34.1576	-57.6304	-187.413	-24.3915	-1.07875	-190.737	-30.2618	-19.6963	-198.184	-28.9866	-33.062	-167.423	-1.23535	23.6615	-171.124	7.87285	47.6584	-141.637	5.57156	39.1902	
254	2.11667	-127.689	-8.75718	55.7839	-106.254	-15.6979	41.8364	-94.8692	-19.3459	25.9969	-80.7274	-22.1185	10.1342	-121.289	-18.5075	-7.66915	-113.501	-25.4881	-27.5951	-105.786	-32.1259	-50.4575	-147.93	-19.8019	-16.1464	-142.33	-25.8033	-38.5235	-139.382	-33.0168	-67.3385	-168.588	-24.1507	-12.0145	-166.921	-32.0264	-35.4418	-169.222	-40.1434	-55.0759	-191.248	-28.4635	2.60471	-192.126	-33.4041	-14.8885	-199.923	-33.95	-33.0763	-168.362	-3.99241	25.7303	-171.87	3.95025	50.4305	-145.439	4.19996	42.217	
255	2.125	-130.211	-10.429	56.5811	-109.977	-16.4445	44.0967	-95.1	-19.9623	27.2713	-82.465	-23.0071	11.6661	-124.278	-19.4847	-6.88303	-118.044	-27.2036	-29.8778	-111.99	-32.2196	-48.1185	-144.282	-23.029	-17.5616	-145.964	-29.9076	-36.759	-143.807	-36.8124	-63.3601	-167.462	-26.02	-10.8089	-171.578	-35.1993	-33.9387	-169.013	-42.0117	-54.705	-191.221	-29.2166	0.431153	-197.525	-35.3841	-11.0028	-204.83	-36.414	-31.2199	-169.676	-6.32597	27.0684	-173.047	3.81191	51.2399	-150.051	3.568	42.7226	
256	2.13333	-128.806	-9.48936	60.84	-108.475	-16.2263	44.9859	-98.7156	-20.251	25.7119	-80.3285	-21.9262	13.0435	-123.746	-20.4244	-4.61139	-114.765	-27.3065	-29.3493	-111.403	-32.6346	-50.0638	-150.731	-23.9869	-15.8467	-146.454	-30.2065	-37.3451	-143.53	-36.9712	-61.1568	-168.178	-28.0963	-13.4593	-171.366	-34.7791	-31.9022	-170.602	-43.0367	-51.6991	-191.899	-29.1434	3.17472	-193.472	-33.9227	-13.6104	-201.798	-35.7193	-29.2918	-171.505	-7.52981	27.0373	-174.127	4.87086	51.2402	-151.534	3.34796	42.4032	
257	2.14167	-126.835	-8.47369	61.325	-106.891	-14.1158	44.0188	-98.1139	-19.3161	28.1859	-82.6877	-22.9128	13.7171	-121.473	-19.1289	-9.58149	-119.202	-26.6991	-30.779	-113.696	-31.0689	-48.5518	-144.504	-22.0511	-17.7686	-145.661	-31.1279	-41.8331	-140.682	-37.2135	-63.0328	-168.741	-25.1866	-9.25733	-170.61	-33.1181	-30.7379	-166.798	-40.6326	-50.5806	-190.684	-28.9875	3.02033	-195.065	-34.3005	-15.1674	-204.238	-33.1371	-30.1627	-170.067	-7.15914	25.9039	-174.691	6.1109	51.3859	-149.386	1.45587	37.5924	
258	2.15	-127.957	-7.38375	59.3849	-110.188	-14.6592	47.2855	-91.1715	-16.4732	27.6333	-80.924	-19.4578	15.5726	-122.893	-17.9889	-8.6329	-118.275	-23.418	-28.6649	-111.648	-27.8013	-48.081	-148.347	-20.5762	-17.7172	-141.578	-28.5877	-41.3859	-143.861	-36.7888	-65.5373	-166.931	-24.5592	-13.0268	-165.915	-30.5548	-33.9861	-168.63	-38.4191	-55.5504	-188.28	-26.6416	-0.384596	-196.499	-31.4964	-16.3472	-200.315	-32.4838	-29.0211	-171.857	-3.82188	28.0383	-170.881	6.92056	50.4518	-148.399	3.68821	40.2448	
259	2.15833	-125.049	-6.1025	58.0969	-106.068	-11.8509	45.3429	-92.2993	-13.9264	25.1321	-76.8445	-17.2576	16.687	-123.1	-15.3666	-8.03654	-112.382	-20.3209	-25.546	-106.932	-25.066	-46.8473	-145.534	-18.0035	-17.3402	-142.566	-24.6354	-36.9243	-138.831	-33.6221	-65.4593	-168.002	-22.4841	-13.0044	-166.798	-28.1509	-30.5658	-163.894	-35.7671	-54.6718	-185.32	-24.1828	4.20318	-194.91	-30.1546	-13.063	-197.704	-29.2228	-32.6628	-172.681	-0.525498	29.3703	-171.077	7.63405	52.3749	-143.107	7.72836	40.4363	
